<svg width="57" height="57" viewBox="0 0 57 57" fill="none" xmlns="http://www.w3.org/2000/svg">
<g clip-path="url(#clip0_216_515)">
<path d="M28.2651 0.37085C12.6403 0.37085 0 13.0111 0 28.6359C0 44.2607 12.6403 56.9888 28.2651 56.9888C43.8898 56.9888 56.6179 44.2607 56.6179 28.6359C56.6179 13.0111 43.8898 0.37085 28.2651 0.37085Z" fill="#292152"/>
<path d="M27.0364 17.0491L20.1018 23.9837H15.3617L14.1328 25.2126V32.1472L15.2739 33.2883H20.1018L27.0364 40.2229H28.2653V17.0491H27.0364Z" fill="#FCEB3C"/>
<path d="M40.1156 28.6359C40.1156 32.1471 38.8867 35.3072 36.9556 37.8528L37.6578 38.555C40.5545 36.185 42.3101 32.6738 42.3101 28.6359C42.3101 24.6858 40.4668 21.0868 37.6578 18.7168L36.9556 19.419C38.9745 21.9646 40.1156 25.1247 40.1156 28.6359Z" fill="#FCEB3C"/>
<path d="M33.5316 28.6359C33.5316 30.6549 32.9171 32.4982 31.8638 34.0783L32.6538 34.8683C34.2338 33.2882 35.1994 31.0938 35.1994 28.6359C35.1994 26.1781 34.2338 23.9836 32.6538 22.4036L31.8638 23.1936C32.9171 24.7736 33.5316 26.617 33.5316 28.6359Z" fill="#FCEB3C"/>
</g>
<defs>
<clipPath id="clip0_216_515">
<rect width="56.6179" height="56.6179" fill="white" transform="translate(0 0.37085)"/>
</clipPath>
</defs>
</svg>
